<?xml version="1.0" standalone="no"?>
<!DOCTYPE svg PUBLIC "-//W3C//DTD SVG 20010904//EN"
 "http://www.w3.org/TR/2001/REC-SVG-20010904/DTD/svg10.dtd">
<svg version="1.0" xmlns="http://www.w3.org/2000/svg"
 width="1280.000000pt" height="1280.000000pt" viewBox="0 0 1280.000000 1280.000000"
 preserveAspectRatio="xMidYMid meet">

<g transform="translate(0.000000,1280.000000) scale(0.100000,-0.100000)"
fill="#000000" stroke="none">
<path d="M5352 10098 c-12 -6 -25 -22 -29 -36 -10 -41 21 -59 148 -86 133 -28
180 -49 238 -106 49 -48 75 -98 98 -183 14 -52 17 -114 18 -381 l0 -320 -85
-37 c-491 -212 -860 -627 -1041 -1169 -77 -231 -102 -399 -103 -680 0 -246 15
-392 61 -585 65 -275 187 -539 345 -747 87 -115 101 -131 205 -235 115 -113
208 -190 338 -276 155 -104 144 -93 115 -117 -97 -80 -126 -110 -169 -173
-120 -178 -181 -368 -181 -559 0 -94 14 -122 62 -126 50 -4 65 21 77 132 19
167 75 288 184 396 165 164 347 179 722 59 189 -60 732 -271 1075 -417 337
-143 466 -192 591 -223 276 -69 471 -67 716 7 98 29 326 143 408 204 107 79
140 125 133 186 -2 25 -8 29 -36 32 -25 3 -49 -8 -110 -47 -132 -87 -305 -141
-449 -141 -142 0 -265 47 -703 265 -135 67 -312 148 -395 180 -82 32 -174 67
-202 78 -29 12 -53 23 -53 26 0 3 42 21 93 40 275 100 479 217 676 387 300
260 504 602 610 1025 49 193 64 349 58 599 -6 242 -22 365 -71 561 -110 436
-323 788 -636 1051 -269 227 -561 367 -910 435 -125 25 -154 27 -400 27 -206
0 -287 -4 -362 -17 -154 -27 -138 -47 -138 171 0 334 29 472 122 577 40 47 86
69 193 96 92 23 125 46 125 86 0 43 -21 45 -343 31 -246 -10 -352 -9 -558 1
-406 21 -412 21 -437 9z m1396 -1164 c357 -62 652 -224 952 -524 408 -407 630
-923 682 -1577 14 -176 2 -379 -31 -540 -77 -373 -293 -716 -571 -907 -174
-120 -386 -199 -630 -237 -116 -18 -443 -6 -553 20 -302 70 -594 223 -827 432
-223 200 -351 368 -480 634 -112 228 -176 436 -228 735 -24 140 -26 180 -27
410 0 228 2 267 23 370 75 370 256 694 498 892 79 65 240 168 262 168 12 0 13
-138 9 -1057 -5 -1137 -6 -1150 -58 -1267 -39 -89 -137 -162 -276 -206 -54
-17 -87 -51 -78 -79 12 -39 39 -39 325 -5 215 25 772 24 1105 -2 347 -27 657
-25 785 3 249 56 414 166 542 363 135 207 169 429 57 370 -11 -6 -34 -37 -51
-68 -100 -177 -341 -307 -728 -392 -352 -78 -963 -91 -1093 -23 -42 21 -52 37
-73 108 -27 95 -33 357 -34 1407 0 763 3 968 13 975 39 24 336 23 485 -3z"/>
<path d="M2691 5354 c0 -11 3 -14 6 -6 3 7 2 16 -1 19 -3 4 -6 -2 -5 -13z"/>
<path d="M10771 5313 c-1 -6 -4 -20 -7 -30 -5 -17 -5 -17 6 0 6 10 9 23 6 30
-3 9 -5 9 -5 0z"/>
<path d="M10743 5235 c-3 -9 -3 -18 -1 -21 3 -3 8 4 11 16 6 23 -1 27 -10 5z"/>
<path d="M2760 5187 c0 -15 30 -80 36 -74 3 3 -4 22 -15 44 -11 21 -20 34 -21
30z"/>
<path d="M10702 5145 c-7 -14 -12 -34 -11 -43 0 -9 7 1 15 22 16 45 13 59 -4
21z"/>
<path d="M2801 5095 c-1 -5 10 -32 24 -60 14 -27 23 -55 20 -63 -2 -7 -1 -11
3 -8 10 6 118 -214 114 -233 -2 -7 1 -10 7 -7 6 4 13 -5 17 -19 3 -14 10 -25
15 -25 5 0 9 -9 9 -21 0 -11 4 -18 9 -15 5 3 8 -2 7 -12 0 -9 4 -16 11 -15 8
2 10 -4 6 -14 -5 -12 -3 -14 7 -8 10 6 12 4 7 -9 -5 -12 2 -25 23 -42 19 -16
27 -31 23 -41 -5 -12 -2 -15 9 -10 13 4 15 1 12 -19 -3 -16 -1 -23 6 -19 5 3
10 1 10 -5 0 -6 24 -44 53 -86 28 -41 67 -98 84 -126 18 -28 49 -67 68 -85 19
-18 32 -33 28 -33 -5 0 -1 -6 7 -13 8 -7 26 -29 40 -49 13 -20 28 -34 33 -31
5 3 8 0 5 -7 -4 -13 61 -86 74 -83 4 2 7 -1 5 -6 -4 -16 134 -161 146 -154 7
3 9 2 4 -2 -12 -13 73 -94 92 -88 11 3 12 2 3 -4 -9 -7 -5 -16 17 -37 16 -16
34 -25 39 -22 6 4 14 1 18 -5 4 -8 3 -9 -4 -5 -7 4 -12 2 -12 -3 0 -6 3 -11 8
-11 4 0 23 -14 42 -31 43 -38 146 -122 254 -208 80 -63 328 -231 340 -231 4 0
12 -5 19 -10 39 -34 470 -260 494 -260 5 0 36 -13 69 -29 32 -15 70 -32 84
-36 27 -8 143 -51 175 -65 11 -5 54 -19 95 -30 41 -12 107 -31 145 -41 198
-57 408 -99 675 -136 102 -15 195 -18 505 -18 410 1 514 10 830 71 266 51 639
161 800 234 23 10 66 29 96 40 64 25 311 146 389 191 78 44 309 189 346 216
17 13 34 23 37 23 14 0 297 231 297 242 0 4 5 8 10 8 6 0 21 10 34 22 44 44
81 73 89 70 4 -1 7 3 7 8 0 6 18 26 40 46 22 20 37 41 33 47 -3 5 -2 7 3 4 15
-9 144 119 144 144 0 5 3 8 8 6 4 -3 21 11 37 30 17 20 41 46 53 59 13 13 21
28 17 33 -3 7 0 8 9 5 9 -3 16 -2 16 2 0 5 11 22 25 38 14 16 25 32 25 35 0 3
14 20 30 38 17 18 30 35 30 38 0 4 18 27 40 52 22 25 40 50 40 54 0 8 27 43
58 75 7 8 10 18 7 24 -3 6 0 13 8 16 8 3 25 25 37 50 13 24 27 44 32 44 5 0 6
4 3 10 -3 6 -1 10 5 10 7 0 10 5 8 12 -2 6 6 21 19 34 13 13 23 31 23 41 0 15
2 16 11 3 8 -12 9 -10 4 8 -4 15 -1 24 10 28 9 4 14 13 11 21 -4 9 -1 11 5 7
7 -4 10 -1 7 6 -2 8 4 22 14 32 10 10 18 25 18 33 0 8 5 15 10 15 6 0 10 9 10
19 0 11 6 26 13 33 8 7 22 31 32 53 10 22 38 80 62 130 23 49 43 96 43 105 0
8 -29 -41 -63 -110 -87 -172 -237 -427 -307 -520 -15 -19 -46 -62 -70 -95
-235 -319 -541 -627 -864 -870 -145 -108 -301 -214 -396 -267 -25 -14 -74 -42
-110 -63 -426 -244 -1034 -444 -1530 -505 -47 -5 -123 -15 -170 -20 -141 -18
-559 -24 -715 -11 -438 37 -744 98 -1113 220 -329 109 -658 267 -957 457 -165
105 -400 283 -541 409 -42 37 -199 193 -272 269 -116 121 -136 145 -240 278
-205 263 -335 471 -492 786 -21 42 -39 73 -39 67z"/>
<path d="M6214 3981 c-34 -15 -54 -51 -54 -97 0 -55 28 -88 90 -109 38 -13 52
-23 56 -41 14 -57 -68 -76 -94 -21 -16 34 -62 39 -62 7 0 -29 27 -78 49 -90
11 -5 40 -10 66 -10 67 0 95 31 95 104 0 68 -23 97 -95 124 -42 15 -50 22 -50
42 0 21 5 25 36 28 30 3 37 -1 47 -23 10 -21 17 -25 35 -19 29 9 29 8 22 37
-14 54 -89 90 -141 68z"/>
<path d="M6820 3973 c-46 -24 -71 -71 -77 -146 -7 -78 10 -142 48 -179 26 -26
34 -29 89 -27 44 2 65 -2 78 -14 24 -22 29 -21 43 5 10 18 8 24 -10 37 -19 15
-20 18 -6 56 20 58 18 151 -4 202 -32 70 -99 98 -161 66z m99 -79 c21 -27 29
-109 15 -161 -6 -21 -7 -21 -31 -6 -32 21 -54 4 -35 -27 10 -17 10 -20 -6 -20
-37 0 -56 37 -60 113 -3 62 -1 76 18 100 29 36 71 37 99 1z"/>
<path d="M8724 3981 c-34 -15 -54 -51 -54 -97 0 -54 24 -84 89 -109 28 -11 54
-27 57 -37 9 -30 -14 -58 -47 -58 -23 0 -34 7 -50 34 -15 25 -25 33 -39 29
-24 -6 -26 -33 -5 -73 20 -38 43 -50 100 -50 35 0 52 6 69 23 33 34 41 89 19
135 -18 36 -29 44 -106 78 -29 13 -37 22 -35 38 2 16 11 22 39 24 30 3 37 -1
47 -23 19 -42 68 -27 57 18 -14 54 -89 90 -141 68z"/>
<path d="M4695 3968 c-3 -8 -4 -88 -3 -178 l3 -165 93 -3 92 -3 0 31 0 30 -65
0 -64 0 -3 148 c-3 144 -3 147 -26 150 -12 2 -24 -3 -27 -10z"/>
<path d="M5040 3800 l0 -180 100 0 100 0 0 30 0 29 -72 3 -73 3 0 45 0 45 68
3 c67 3 67 3 67 32 l0 30 -71 0 -70 0 3 38 3 37 73 3 72 3 0 29 0 30 -100 0
-100 0 0 -180z"/>
<path d="M5406 3934 c-8 -60 -8 -227 0 -277 l7 -38 96 3 96 3 3 28 3 27 -75 0
-76 0 0 50 0 50 69 0 70 0 -1 30 -1 30 -69 0 -68 0 0 40 0 40 70 0 70 0 0 30
0 30 -94 0 -93 0 -7 -46z"/>
<path d="M5777 3973 c-3 -5 -4 -84 -3 -178 l1 -170 25 0 c25 0 25 1 30 103 l5
104 47 -104 c43 -95 49 -103 75 -103 l28 0 0 175 0 175 -25 0 c-25 0 -25 -1
-31 -110 -3 -60 -6 -104 -7 -97 -1 7 -23 58 -49 113 -39 83 -50 99 -69 99 -13
0 -25 -3 -27 -7z"/>
<path d="M7160 3845 c0 -190 17 -225 112 -225 48 0 57 5 81 40 14 20 17 50 17
172 l0 148 -25 0 -25 0 0 -128 c0 -139 -10 -172 -54 -172 -44 0 -51 23 -52
164 l-1 131 -26 3 -27 3 0 -136z"/>
<path d="M7550 3800 l0 -180 100 0 100 0 0 30 0 29 -72 3 -73 3 -3 48 -3 47
70 0 71 0 0 30 0 30 -71 0 -70 0 3 38 3 37 73 3 72 3 0 29 0 30 -100 0 -100 0
0 -180z"/>
<path d="M7920 3800 l0 -180 100 0 100 0 0 30 0 30 -75 0 -75 0 0 50 0 50 65
0 65 0 0 30 0 30 -65 0 -65 0 0 40 0 40 70 0 70 0 0 30 0 30 -95 0 -95 0 0
-180z"/>
<path d="M8284 3967 c-2 -7 -3 -87 -2 -177 l3 -165 25 0 c25 0 25 1 30 103 l5
102 46 -102 c43 -96 49 -103 75 -103 l29 0 0 175 c0 174 0 175 -22 178 -23 3
-23 2 -23 -102 0 -59 -4 -108 -10 -111 -5 -3 -10 -1 -10 4 0 6 -21 56 -46 111
-40 86 -50 100 -71 100 -13 0 -26 -6 -29 -13z"/>
<path d="M5290 3280 l0 -110 65 0 c58 0 65 2 65 20 0 17 -7 20 -45 20 -43 0
-45 1 -45 30 0 28 2 30 40 30 34 0 40 3 40 21 0 13 -6 20 -17 18 -46 -4 -63 1
-63 20 0 16 8 20 42 23 31 2 44 8 46 21 3 15 -5 17 -62 17 l-66 0 0 -110z"/>
<path d="M5520 3280 c0 -91 3 -110 15 -110 8 0 16 10 17 23 0 12 2 34 3 50 3
45 11 41 36 -18 19 -43 28 -55 44 -53 18 3 20 10 19 63 -3 152 -4 155 -19 155
-10 0 -15 -16 -17 -62 l-3 -63 -29 63 c-20 43 -34 62 -47 62 -17 0 -19 -9 -19
-110z"/>
<path d="M5750 3370 c0 -15 7 -20 25 -20 25 0 25 -1 25 -90 0 -83 1 -90 20
-90 19 0 20 7 20 89 0 85 1 90 22 93 13 2 24 11 26 21 3 15 -5 17 -67 17 -64
0 -71 -2 -71 -20z"/>
<path d="M5980 3280 l0 -110 66 0 c57 0 65 2 62 18 -2 12 -15 18 -46 20 -39 3
-42 5 -42 33 0 27 2 29 41 29 33 0 40 3 37 18 -3 17 -8 18 -55 21 -16 1 -23 7
-23 20 0 16 8 20 43 23 29 2 42 8 42 18 0 11 -15 16 -62 18 l-63 3 0 -111z"/>
<path d="M6210 3279 c0 -100 2 -110 18 -107 12 2 18 15 20 46 4 53 18 51 50
-6 15 -27 31 -42 43 -42 18 0 18 2 -5 48 -24 48 -24 49 -5 65 23 20 25 70 3
91 -10 11 -34 16 -70 16 l-54 0 0 -111z m98 49 c-2 -17 -11 -24 -30 -26 -24
-3 -28 0 -28 22 0 22 4 26 31 26 26 0 30 -3 27 -22z"/>
<path d="M6442 3373 c2 -10 13 -19 26 -21 21 -3 22 -8 22 -93 0 -82 1 -89 20
-89 19 0 20 7 20 90 0 82 2 90 19 90 19 0 35 23 24 34 -4 3 -35 6 -70 6 -56 0
-64 -2 -61 -17z"/>
<path d="M6676 3308 c-39 -131 -41 -138 -22 -138 9 0 21 11 26 25 7 19 17 25
40 25 23 0 33 -6 40 -25 5 -14 17 -25 26 -25 19 0 17 7 -22 138 -20 66 -28 82
-44 82 -16 0 -24 -16 -44 -82z m59 -25 c5 -19 3 -23 -15 -23 -16 0 -20 4 -16
16 3 9 6 23 6 32 0 21 15 5 25 -25z"/>
<path d="M6897 3383 c-9 -8 -9 -176 -1 -197 3 -9 12 -16 20 -16 11 0 14 23 14
110 0 85 -3 110 -13 110 -8 0 -17 -3 -20 -7z"/>
<path d="M7039 3335 c-1 -30 -1 -79 -2 -107 -1 -42 2 -54 16 -56 15 -3 17 6
18 60 l0 63 32 -62 c21 -42 37 -63 49 -63 16 0 18 11 18 110 0 90 -3 110 -15
110 -10 0 -15 -16 -17 -62 l-3 -63 -33 63 c-41 79 -62 82 -63 7z"/>
<path d="M7280 3280 c0 -91 3 -110 15 -110 12 0 15 14 16 63 l1 62 15 -62 c11
-49 19 -63 33 -63 13 0 19 11 25 46 12 85 24 95 24 22 1 -54 4 -68 16 -68 12
0 15 19 15 111 l0 110 -27 -3 c-25 -3 -29 -9 -38 -55 -5 -28 -13 -54 -16 -57
-3 -3 -11 21 -17 54 -11 54 -15 60 -37 60 l-25 0 0 -110z"/>
<path d="M7548 3308 c-5 -141 -7 -138 63 -138 52 0 59 2 59 19 0 16 -8 20 -42
23 -38 3 -43 6 -43 28 0 22 5 26 39 30 22 3 41 10 43 17 5 14 -34 26 -63 21
-13 -2 -20 4 -22 20 -3 20 1 22 42 22 39 0 46 3 46 20 0 18 -7 20 -59 20 l-60
0 -3 -82z"/>
<path d="M7780 3280 c0 -90 3 -110 15 -110 10 0 15 16 17 63 l3 62 29 -62 c20
-44 34 -63 47 -63 17 0 19 9 19 110 0 91 -3 110 -15 110 -12 0 -15 -15 -16
-67 l-1 -68 -31 67 c-21 45 -38 67 -49 68 -16 0 -18 -12 -18 -110z"/>
<path d="M8010 3370 c0 -15 7 -20 25 -20 25 0 25 -1 25 -90 0 -73 3 -90 15
-90 12 0 15 17 15 90 0 89 0 90 25 90 18 0 25 5 25 20 0 18 -7 20 -65 20 -58
0 -65 -2 -65 -20z"/>
</g>
</svg>
